# xmcd
#
# Track frame offsets:
#	150
#	15262
#	34576
#	47382
#	66266
#	76394
#	87485
#	105295
#	122106
#	135880
#	150089
#	161299
#
# Disc length: 2261 seconds
#
# Revision: 1
# Processed by: cddbd v1.5.2PL0 Copyright (c) Steve Scherf et al.
# Submitted via: audiograbber 1.83.01
#
DISCID=7608d30c
DTITLE=Mikeeadrick - Steel Rails
DYEAR=1900
DGENRE=Country
TTITLE0=Steel Rails
TTITLE1=Hearts Of Palm
TTITLE2=Shuffle This
TTITLE3=Danny Boy
TTITLE4=Gallopin' Golashers
TTITLE5=America The Beautiful
TTITLE6=Over The Moon
TTITLE7=Cottage By The Lee
TTITLE8=Pride Gets In The Way
TTITLE9=Lovely Terese
TTITLE10=John's Coal Train
TTITLE11=The Star Spangled Banner
EXTD=
EXTT0=
EXTT1=
EXTT2=
EXTT3=
EXTT4=
EXTT5=
EXTT6=
EXTT7=
EXTT8=
EXTT9=
EXTT10=
EXTT11=
PLAYORDER=
